<svg width="1335" height="763" viewBox="0 0 1335 763" fill="none" xmlns="http://www.w3.org/2000/svg">
<g clip-path="url(#clip0_679_11590)">
<rect width="1335" height="762.857" fill="white"/>
<path d="M320.341 422.402C320.341 449.968 297.994 472.315 270.427 472.315C242.861 472.315 220.514 449.968 220.514 422.402C220.514 394.835 242.861 372.488 270.427 372.488C297.994 372.488 320.341 394.835 320.341 422.402ZM242.583 422.402C242.583 437.78 255.049 450.246 270.427 450.246C285.805 450.246 298.272 437.78 298.272 422.402C298.272 407.024 285.805 394.557 270.427 394.557C255.049 394.557 242.583 407.024 242.583 422.402Z" fill="#DD3B41"/>
<path d="M320.341 422.402C320.341 410.664 316.204 399.301 308.657 390.31C301.11 381.32 290.636 375.277 279.075 373.243L275.251 394.978C281.701 396.113 287.544 399.484 291.754 404.499C295.964 409.515 298.272 415.854 298.272 422.402H320.341Z" fill="#43BE5C"/>
<path d="M279.079 373.244C267.518 371.209 255.611 373.314 245.448 379.188C235.286 385.063 227.518 394.331 223.512 405.364L244.255 412.897C246.49 406.742 250.823 401.572 256.492 398.295C262.162 395.018 268.805 393.844 275.254 394.979L279.079 373.244Z" fill="#8A49DD"/>
<path d="M223.775 404.656C219.602 415.627 219.428 427.718 223.286 438.804C227.143 449.891 234.784 459.263 244.867 465.274L256.168 446.318C250.544 442.965 246.281 437.737 244.129 431.552C241.977 425.367 242.074 418.622 244.402 412.502L223.775 404.656Z" fill="#FF842B"/>
<path d="M244.855 465.267C252.253 469.68 260.667 472.104 269.279 472.302C277.891 472.5 286.407 470.466 294 466.398L283.578 446.945C279.342 449.215 274.591 450.35 269.787 450.239C264.982 450.128 260.289 448.776 256.162 446.314L244.855 465.267Z" fill="#FFB800"/>
<rect x="575.465" y="333.014" width="39.2635" height="114.656" rx="19.6318" transform="rotate(40.7481 575.465 333.014)" fill="#E1B48B"/>
<path d="M583.602 310.484C594.117 298.281 612.534 296.911 624.737 307.426C636.941 317.941 638.31 336.358 627.796 348.561L579.833 404.228L535.64 366.151L583.602 310.484Z" fill="#CD2026"/>
<rect x="500.625" y="429.102" width="39.2635" height="114.656" rx="19.6318" transform="rotate(-63.4727 500.625 429.102)" fill="#E1B48B"/>
<rect width="39.2635" height="114.656" rx="19.6318" transform="matrix(-0.757587 0.652734 0.652734 0.757587 698.525 332.175)" fill="#E1B48B"/>
<rect width="39.2635" height="114.656" rx="19.6318" transform="matrix(-0.446624 -0.894722 -0.894722 0.446624 773.369 428.263)" fill="#E1B48B"/>
<path d="M690.392 309.646C679.877 297.442 661.461 296.073 649.257 306.587C637.053 317.102 635.684 335.519 646.199 347.722L694.161 403.389L738.354 365.312L690.392 309.646Z" fill="#CD2026"/>
<circle cx="637.726" cy="255.28" r="33.0935" fill="#E1B48B"/>
<path d="M573.533 343.059C573.533 315.179 596.135 292.577 624.015 292.577H643.14C674.118 292.577 699.23 317.69 699.23 348.668V473.581H573.533V343.059Z" fill="#CD2026"/>
<path d="M672.052 221.666C667.631 243.938 646.946 245.257 637.156 243.132C616.051 247.776 604.641 232.765 601.575 224.679C602.166 222.623 611.091 223.512 615.48 224.214C613.063 221.543 614.599 212.931 615.669 208.958C617.565 208.052 625.822 213.437 629.714 216.242C629.011 212.099 633.926 205.83 636.471 203.213C638.718 204.378 642.343 210.982 643.875 214.139C652.254 207.146 656.051 207.462 656.902 208.494C659.33 210.226 657.958 218.293 656.969 222.111C659.637 219.715 668.136 220.816 672.052 221.666Z" fill="#1F1F1F"/>
<rect x="253.293" y="426.127" width="829.905" height="278.622" fill="#EBEBEB"/>
<rect x="1083.42" y="327.282" width="69.2129" height="163.594" transform="rotate(39.8177 1083.42 327.282)" fill="#EEF9F0"/>
<rect x="1080.73" y="346.884" width="48.2393" height="29.3631" transform="rotate(39.8177 1080.73 346.884)" fill="#169F32"/>
<rect x="1059.24" y="372.659" width="48.2393" height="29.3631" transform="rotate(39.8177 1059.24 372.659)" fill="#43BE5C"/>
<rect x="1037.75" y="398.432" width="48.2393" height="29.3631" transform="rotate(39.8177 1037.75 398.432)" fill="#B2E7BC"/>
<rect x="1016.26" y="424.21" width="48.2393" height="29.3631" transform="rotate(39.8177 1016.26 424.21)" fill="#DAF4DF"/>
<rect x="993.924" y="302.46" width="69.2129" height="163.594" transform="rotate(8.95139 993.924 302.46)" fill="#F5EEFF"/>
<rect x="1001.67" y="320.665" width="48.2393" height="29.3631" transform="rotate(8.95139 1001.67 320.665)" fill="#7128CE"/>
<rect x="996.449" y="353.816" width="48.2393" height="29.3631" transform="rotate(8.95139 996.449 353.816)" fill="#A26AE9"/>
<rect x="991.225" y="386.963" width="48.2393" height="29.3631" transform="rotate(8.95139 991.225 386.963)" fill="#C29FEF"/>
<rect x="986.006" y="420.112" width="48.2393" height="29.3631" transform="rotate(8.95139 986.006 420.112)" fill="#EAD9FF"/>
<rect x="908.873" y="337.041" width="69.2129" height="163.594" transform="rotate(-20.4229 908.873 337.041)" fill="#FFF0F1"/>
<rect x="924.553" y="349.106" width="48.2393" height="29.3631" transform="rotate(-20.4229 924.553 349.106)" fill="#CD2026"/>
<rect x="936.266" y="380.554" width="48.2393" height="29.3631" transform="rotate(-20.4229 936.266 380.554)" fill="#F4767B"/>
<rect x="947.971" y="412.003" width="48.2393" height="29.3631" transform="rotate(-20.4229 947.971 412.003)" fill="#FFB1B4"/>
<rect x="959.684" y="443.45" width="48.2393" height="29.3631" transform="rotate(-20.4229 959.684 443.45)" fill="#FFD7D8"/>
<path d="M128.137 704.748H1058.56" stroke="#A7A7A7" stroke-width="2.23493"/>
<path d="M1080.09 704.748H1206.63" stroke="#A7A7A7" stroke-width="2.23493"/>
<g clip-path="url(#clip1_679_11590)">
<circle r="39.1917" transform="matrix(-0.861711 -0.5074 -0.5074 0.861711 913.667 220.148)" fill="#FFB800"/>
<rect width="25.7562" height="21.7411" transform="matrix(-0.861711 -0.5074 -0.5074 0.861711 909.291 252.962)" fill="#FFB800"/>
<path d="M904.11 247.703L929.225 222.999L921.05 221.774L919.954 217.54L915.721 218.636L914.625 214.402L910.392 215.498L905.241 208.877L895.051 242.369" stroke="#EDAB00" stroke-width="1.48996" stroke-linecap="square" stroke-linejoin="round"/>
<path d="M891.271 285.377L867.494 271.376L876.25 256.507L900.027 270.508L891.271 285.377Z" fill="#D19700"/>
</g>
<path d="M135.449 617.678H220.377L211.621 699.625H143.329L135.449 617.678Z" fill="#F5F5F5"/>
<path d="M128 570C154.332 570 175.679 591.346 175.679 617.679C149.346 617.679 128 596.332 128 570Z" fill="#E2CBFF"/>
<path d="M220.379 570C194.047 570 172.7 591.346 172.7 617.679C199.032 617.679 220.379 596.332 220.379 570Z" fill="#E2CBFF"/>
<rect x="1092.83" y="197.482" width="123.356" height="123.356" transform="rotate(-62.856 1092.83 197.482)" stroke="#1F1F1F" stroke-width="1.48996"/>
<rect x="1085.53" y="199.831" width="12.4845" height="12.4845" transform="rotate(-62.856 1085.53 199.831)" fill="#1F1F1F"/>
<rect x="1141.06" y="91.5156" width="12.4845" height="12.4845" transform="rotate(-62.856 1141.06 91.5156)" fill="#1F1F1F"/>
<rect x="1195.23" y="256.081" width="12.4845" height="12.4845" transform="rotate(-62.856 1195.23 256.081)" fill="#1F1F1F"/>
<rect x="1250.77" y="147.762" width="12.4845" height="12.4845" transform="rotate(-62.856 1250.77 147.762)" fill="#1F1F1F"/>
<rect x="1090.53" y="147.261" width="126.298" height="126.298" transform="rotate(-30.3181 1090.53 147.261)" stroke="#1F1F1F" stroke-width="1.48996" stroke-miterlimit="3.3292" stroke-dasharray="11.93 11.93"/>
<path d="M1175.7 166.669C1237.19 98.5255 1336.18 121.437 1371.63 160.969" stroke="#1F1F1F" stroke-width="1.48996"/>
<circle cx="1175.24" cy="170.574" r="13.0043" transform="rotate(-30.3181 1175.24 170.574)" fill="#FFB800"/>
<line x1="63.9559" y1="101.316" x2="63.9559" y2="205.467" stroke="#FFE2C8" stroke-width="1.48996"/>
<line x1="82.2274" y1="101.316" x2="82.2274" y2="205.467" stroke="#FFE2C8" stroke-width="1.48996"/>
<line x1="100.497" y1="101.316" x2="100.497" y2="205.467" stroke="#FFE2C8" stroke-width="1.48996"/>
<line x1="118.768" y1="101.316" x2="118.768" y2="205.467" stroke="#FFE2C8" stroke-width="1.48996"/>
<line x1="137.044" y1="101.316" x2="137.044" y2="205.467" stroke="#FFE2C8" stroke-width="1.48996"/>
<line x1="151.83" y1="190.682" x2="47.6794" y2="190.682" stroke="#FFE2C8" stroke-width="1.48996"/>
<line x1="151.83" y1="172.407" x2="47.6794" y2="172.407" stroke="#FFE2C8" stroke-width="1.48996"/>
<line x1="151.83" y1="154.137" x2="47.6794" y2="154.137" stroke="#FFE2C8" stroke-width="1.48996"/>
<line x1="151.83" y1="135.863" x2="47.6794" y2="135.863" stroke="#FFE2C8" stroke-width="1.48996"/>
<line x1="151.83" y1="117.593" x2="47.6794" y2="117.593" stroke="#FFE2C8" stroke-width="1.48996"/>
<path d="M581.391 419.005V427.878H473.944L454.436 366.05L503.653 363.547L520.181 419.005H581.391Z" fill="#D7D7D7"/>
<ellipse rx="6.16615" ry="7.54087" transform="matrix(-0.955936 0.293576 0.291315 0.956627 487.287 395.054)" fill="white"/>
<path d="M695.809 334.112C695.809 330.62 698.64 327.789 702.132 327.789H844.405C847.898 327.789 850.729 330.62 850.729 334.112V417.105H695.809V334.112Z" fill="#D7D7D7"/>
<rect width="154.92" height="11.0657" transform="matrix(1 0 0 -1 695.809 428.169)" fill="#C5C5C5"/>
<circle cx="773.268" cy="372.051" r="9.48491" fill="white"/>
<rect x="349.404" y="135.585" width="104.848" height="152.111" fill="#FFF0F1"/>
<rect x="357.01" y="196.066" width="91.2665" height="61.0254" fill="#FFD7D8"/>
<path d="M395.669 209.288L418.8 244.328H372.537L395.669 209.288Z" fill="#FFB1B4"/>
<path d="M418.935 221.058L434.931 244.282H402.939L418.935 221.058Z" fill="#FFB1B4"/>
<circle cx="418.934" cy="210.917" r="5.43253" fill="#FFB1B4"/>
<rect x="357.012" y="262.887" width="43.4602" height="14.3057" fill="#FFD7D8"/>
<rect x="404.814" y="262.887" width="43.4602" height="14.3057" fill="#FFD7D8"/>
<rect x="357.012" y="155.866" width="91.2665" height="34.406" fill="#FFD7D8"/>
<circle cx="358.823" cy="144.276" r="1.81084" fill="#CD2026"/>
<circle cx="364.434" cy="144.276" r="1.81084" fill="#FFB800"/>
<circle cx="370.049" cy="144.276" r="1.81084" fill="#169F32"/>
<path d="M315.951 141.856V188.886" stroke="#43BE5C" stroke-width="0.522554" stroke-linejoin="round"/>
<path d="M328.088 141.856V188.886" stroke="#43BE5C" stroke-width="0.522554" stroke-linejoin="round"/>
<path d="M340.227 141.856V188.886" stroke="#43BE5C" stroke-width="0.522554" stroke-linejoin="round"/>
<path d="M352.365 141.856V188.886" stroke="#43BE5C" stroke-width="0.522554" stroke-linejoin="round"/>
<path d="M311.4 183.576H356.155" stroke="#43BE5C" stroke-width="0.522554" stroke-linejoin="round"/>
<path d="M311.4 171.44H356.913" stroke="#43BE5C" stroke-width="0.522554" stroke-linejoin="round"/>
<path d="M311.4 159.304H356.913" stroke="#43BE5C" stroke-width="0.522554" stroke-linejoin="round"/>
<path d="M312.162 147.167H356.916" stroke="#43BE5C" stroke-width="0.522554" stroke-linejoin="round"/>
<path d="M875.412 88.46L892.823 71.0486L875.412 53.6373" stroke="#FF842B" stroke-width="1.48996"/>
<path d="M893.645 88.46L911.056 71.0486L893.645 53.6373" stroke="#FF842B" stroke-width="1.48996"/>
<path d="M911.879 88.46L929.29 71.0486L911.879 53.6373" stroke="#FF842B" stroke-width="1.48996"/>
<path d="M930.117 88.46L947.529 71.0486L930.117 53.6373" stroke="#FF842B" stroke-width="1.48996"/>
<path d="M652.602 79.7471L664.232 94.7776L676.47 80.1827L688.1 94.7776L699.123 81.2719L710.927 95.2133L721.429 81.4898L731.497 94.9955L742.867 81.0541" stroke="#A7A7A7" stroke-width="1.48996" stroke-miterlimit="10" stroke-linecap="round" stroke-linejoin="round"/>
</g>
<defs>
<clipPath id="clip0_679_11590">
<rect width="1335" height="762.857" fill="white"/>
</clipPath>
<clipPath id="clip1_679_11590">
<rect width="98.7746" height="111.121" fill="white" transform="matrix(-0.861711 -0.5074 -0.5074 0.861711 980.344 209.541)"/>
</clipPath>
</defs>
</svg>
